# xmcd
#
# Track frame offsets: 
#        150
#        18160
#        36985
#        60160
#        78003
#
# Disc length: 1159 seconds
#
# Revision: 0
# Processed by: cddbd v1.4PL0 Copyright (c) Steve Scherf et al.
# Submitted via: ExactAudioCopy v0.95a3
#
DISCID=29048505
DTITLE=Grandma's House - Gusg
DYEAR=1900
DGENRE=
TTITLE0=By your Side
TTITLE1=Devil
TTITLE2=Love is all around
TTITLE3=Cool Corona
TTITLE4=Drei Wochen!
EXTD=
EXTT0=
EXTT1=
EXTT2=
EXTT3=
EXTT4=
PLAYORDER=
